<?xml version="1.0" encoding="UTF-8" standalone="no"?>
<svg
   xmlns:dc="http://purl.org/dc/elements/1.1/"
   xmlns:cc="http://creativecommons.org/ns#"
   xmlns:rdf="http://www.w3.org/1999/02/22-rdf-syntax-ns#"
   xmlns:svg="http://www.w3.org/2000/svg"
   xmlns="http://www.w3.org/2000/svg"
   xmlns:xlink="http://www.w3.org/1999/xlink"
   xmlns:sodipodi="http://sodipodi.sourceforge.net/DTD/sodipodi-0.dtd"
   xmlns:inkscape="http://www.inkscape.org/namespaces/inkscape"
   width="69.849945mm"
   height="50.05196mm"
   viewBox="0 0 69.849945 50.05196"
   version="1.1"
   id="svg8"
   inkscape:version="1.0.1 (1.0.1+r74)"
   sodipodi:docname="logo-text.svg"
   inkscape:export-filename="/home/carlos/Dropbox/Data_Science/Web-scrapping/Owl-Project/logo-text.png"
   inkscape:export-xdpi="96"
   inkscape:export-ydpi="96">
  <defs
     id="defs2">
    <rect
       x="61.840931"
       y="80.966461"
       width="70.024612"
       height="19.64431"
       id="rect921" />
    <linearGradient
       inkscape:collect="always"
       id="linearGradient879">
      <stop
         style="stop-color:#b34747;stop-opacity:1;"
         offset="0"
         id="stop875" />
      <stop
         style="stop-color:#b34747;stop-opacity:0;"
         offset="1"
         id="stop877" />
    </linearGradient>
    <linearGradient
       inkscape:collect="always"
       xlink:href="#linearGradient879"
       id="linearGradient881"
       x1="61.440029"
       y1="63.565628"
       x2="161.95421"
       y2="65.358231"
       gradientUnits="userSpaceOnUse"
       gradientTransform="translate(0.14077395)" />
  </defs>
  <sodipodi:namedview
     id="base"
     pagecolor="#ffffff"
     bordercolor="#666666"
     borderopacity="1.0"
     inkscape:pageopacity="0.0"
     inkscape:pageshadow="2"
     inkscape:zoom="0.49497475"
     inkscape:cx="-137.74531"
     inkscape:cy="384.00998"
     inkscape:document-units="mm"
     inkscape:current-layer="layer1"
     inkscape:document-rotation="0"
     showgrid="false"
     fit-margin-top="0"
     fit-margin-left="0"
     fit-margin-right="0"
     fit-margin-bottom="0"
     inkscape:window-width="1848"
     inkscape:window-height="1009"
     inkscape:window-x="72"
     inkscape:window-y="34"
     inkscape:window-maximized="1" />
  <metadata
     id="metadata5">
    <rdf:RDF>
      <cc:Work
         rdf:about="">
        <dc:format>image/svg+xml</dc:format>
        <dc:type
           rdf:resource="http://purl.org/dc/dcmitype/StillImage" />
        <dc:title></dc:title>
      </cc:Work>
    </rdf:RDF>
  </metadata>
  <g
     inkscape:label="Layer 1"
     inkscape:groupmode="layer"
     id="layer1"
     transform="translate(-61.580802,-46.622324)">
    <path
       style="fill:url(#linearGradient881);fill-opacity:1;stroke-width:0.264583"
       d="m 92.469934,76.607589 c -3.43116,-3.43115 -3.95717,-3.86185 -4.36451,-3.57371 -2.18917,1.54859 -6.41058,2.97714 -8.79754,2.97714 -1.68737,0 -4.80771,-0.82509 -6.705807,-1.77317 -2.248976,-1.12334 -5.008115,-3.82385 -6.162988,-6.03204 -2.496652,-4.77376 -2.379559,-9.81559 0.336756,-14.50012 0.489706,-0.84454 0.890374,-1.58138 0.890374,-1.63743 0,-0.056 -0.565547,-0.18438 -1.256771,-0.28518 -0.691224,-0.1008 -1.7094,-0.4113 -2.262614,-0.69001 -1.171324,-0.59011 -2.566032,-2.60598 -2.566032,-3.70886 v -0.74195 h 9.608699 c 5.794883,0 10.226933,0.11429 11.166313,0.28795 5.07921,0.93894 10.04679,5.75428 11.23087,10.88667 0.30747,1.33274 0.35986,4.43647 0.0748,4.43428 -0.10914,-8.5e-4 -2.04391,-1.84962 -4.29948,-4.10839 -4.6606,-4.66722 -5.46787,-5.29875 -7.44644,-5.82538 -1.94457,-0.51757 -3.5704,-0.47751 -5.56,0.13701 -2.076125,0.64126 -4.251424,2.47812 -5.377745,4.54108 -0.66245,1.21333 -0.791694,1.78039 -0.88531,3.88427 -0.106838,2.40102 -0.08512,2.5131 0.856077,4.41748 2.397051,4.8501 7.794008,6.66311 12.594058,4.23075 1.56842,-0.79478 3.46567,-2.62474 3.96096,-3.82047 0.18431,-0.44495 0.41139,-0.80899 0.50464,-0.80899 0.0932,0 2.01052,1.84386 4.26061,4.09746 l 4.09106,4.09747 4.193326,-4.16362 4.19333,-4.16361 0.63797,1.05682 c 1.04939,1.73835 2.52863,3.07704 4.34402,3.93129 1.46833,0.69093 2.01712,0.80577 3.83646,0.80275 1.83588,-0.003 2.35945,-0.11693 3.87104,-0.84208 2.89685,-1.38969 4.68255,-3.72973 5.25493,-6.88622 0.6497,-3.58289 -0.85583,-7.23695 -3.78178,-9.17871 -2.65893,-1.76455 -5.38136,-2.13495 -8.53427,-1.16111 -1.74763,0.53979 -1.92513,0.68144 -6.46487,5.15937 -2.56735,2.5324 -4.747816,4.60435 -4.845486,4.60435 -0.39,0 -0.14468,-3.22725 0.37499,-4.93307 0.834576,-2.73953 2.126736,-4.84424 4.117196,-6.70621 1.96934,-1.84222 4.64594,-3.26982 6.94186,-3.70253 1.24835,-0.23528 20.93212,-0.40862 20.93212,-0.18434 0,0.0463 -0.17927,0.68796 -0.39839,1.42579 -0.4616,1.55438 -1.97424,3.10449 -3.27604,3.35718 -0.45291,0.0879 -1.18067,0.22884 -1.61724,0.31316 -0.96446,0.18629 -0.98903,0.49479 -0.13903,1.74568 1.7232,2.53592 2.55152,6.7152 2.00196,10.10088 -0.64804,3.99235 -3.53314,8.11009 -7.17094,10.23468 -1.89381,1.10604 -5.46039,2.11037 -7.46838,2.10305 -2.32725,-0.008 -6.18779,-1.28211 -8.21337,-2.70967 l -0.74913,-0.52796 -3.90093,3.86981 c -2.145506,2.12839 -3.952026,3.8698 -4.014476,3.8698 -0.0625,0 -1.86917,-1.7556 -4.0149,-3.90134 z m -15.38193,-11.54107 c -1.33491,-0.80805 -2.274924,-2.36233 -2.276679,-3.76441 -0.0031,-2.50322 2.257009,-4.72647 4.627139,-4.5516 1.00102,0.0739 1.06483,0.12978 1.14591,1.00426 0.11438,1.23353 0.93481,2.06894 2.12991,2.1688 0.87929,0.0735 0.9664,0.15531 1.04527,0.98207 0.33232,3.48346 -3.66852,5.97868 -6.67155,4.16088 z m 34.045566,-0.13886 c -1.61249,-1.17493 -2.01596,-1.92212 -2.01596,-3.73331 0,-1.75921 0.3762,-2.49774 1.84176,-3.61558 0.79059,-0.60301 1.24317,-0.74129 2.43894,-0.74522 l 1.46823,-0.005 0.039,1.03587 c 0.0476,1.26403 0.83773,2.00684 2.13481,2.00684 0.88734,0 0.89673,0.0126 0.89673,1.19913 0,2.64976 -1.59098,4.38166 -4.19305,4.56444 -1.33697,0.0939 -1.61368,0.019 -2.61043,-0.70734 z"
       id="path24" />
    <text
       xml:space="preserve"
       id="text919"
       style="font-style:normal;font-variant:normal;font-weight:normal;font-stretch:normal;font-size:10.5833px;line-height:1.25;font-family:'Accanthis ADF Std';-inkscape-font-specification:'Accanthis ADF Std, Normal';font-variant-ligatures:normal;font-variant-caps:normal;font-variant-numeric:normal;font-variant-east-asian:normal;white-space:pre;shape-inside:url(#rect921);fill:#b34747;fill-opacity:0.972549;stroke:none;"
       transform="matrix(1.3591771,0,0,1.3591771,-22.667646,-29.556584)"><tspan
         x="61.841797"
         y="90.227184"><tspan
           style="fill:#000000;fill-opacity:0.972549">Project</tspan><tspan
           style="font-weight:bold;fill:#b34747;fill-opacity:0.972549">Owl</tspan></tspan></text>
  </g>
</svg>
