<?xml version="1.0" encoding="UTF-8" standalone="no"?>
<svg
   xmlns:dc="http://purl.org/dc/elements/1.1/"
   xmlns:cc="http://creativecommons.org/ns#"
   xmlns:rdf="http://www.w3.org/1999/02/22-rdf-syntax-ns#"
   xmlns:svg="http://www.w3.org/2000/svg"
   xmlns="http://www.w3.org/2000/svg"
   xmlns:xlink="http://www.w3.org/1999/xlink"
   xmlns:sodipodi="http://sodipodi.sourceforge.net/DTD/sodipodi-0.dtd"
   xmlns:inkscape="http://www.inkscape.org/namespaces/inkscape"
   width="94.343452mm"
   height="94.343452mm"
   viewBox="0 0 94.343453 94.343452"
   version="1.1"
   id="svg8"
   inkscape:version="1.0.1 (1.0.1+r74)"
   sodipodi:docname="logo.svg"
   inkscape:export-filename="/home/carlos/Dropbox/Data_Science/Web-scrapping/Owl-Project/logo.png"
   inkscape:export-xdpi="96"
   inkscape:export-ydpi="96">
  <defs
     id="defs2">
    <linearGradient
       inkscape:collect="always"
       id="linearGradient879">
      <stop
         style="stop-color:#b34747;stop-opacity:1;"
         offset="0"
         id="stop875" />
      <stop
         style="stop-color:#b34747;stop-opacity:0;"
         offset="1"
         id="stop877" />
    </linearGradient>
    <linearGradient
       inkscape:collect="always"
       xlink:href="#linearGradient879"
       id="linearGradient881"
       x1="61.440029"
       y1="63.565628"
       x2="161.95421"
       y2="65.358231"
       gradientUnits="userSpaceOnUse"
       gradientTransform="matrix(1.1454008,0,0,1.1454008,-13.65695,-9.6150948)" />
  </defs>
  <sodipodi:namedview
     id="base"
     pagecolor="#ffffff"
     bordercolor="#666666"
     borderopacity="1.0"
     inkscape:pageopacity="0.0"
     inkscape:pageshadow="2"
     inkscape:zoom="0.49497475"
     inkscape:cx="291.92342"
     inkscape:cy="513.29045"
     inkscape:document-units="mm"
     inkscape:current-layer="layer1"
     inkscape:document-rotation="0"
     showgrid="false"
     fit-margin-top="0"
     fit-margin-left="0"
     fit-margin-right="0"
     fit-margin-bottom="0"
     inkscape:window-width="1713"
     inkscape:window-height="747"
     inkscape:window-x="-256"
     inkscape:window-y="274"
     inkscape:window-maximized="0"
     inkscape:snap-global="false" />
  <metadata
     id="metadata5">
    <rdf:RDF>
      <cc:Work
         rdf:about="">
        <dc:format>image/svg+xml</dc:format>
        <dc:type
           rdf:resource="http://purl.org/dc/dcmitype/StillImage" />
        <dc:title></dc:title>
      </cc:Work>
    </rdf:RDF>
  </metadata>
  <g
     inkscape:label="Layer 1"
     inkscape:groupmode="layer"
     id="layer1"
     transform="translate(-49.547877,-16.0213)">
    <path
       style="fill:url(#linearGradient881);fill-opacity:1;stroke-width:0.303054"
       d="m 92.096948,78.131302 c -3.930054,-3.930042 -4.532546,-4.423366 -4.999114,-4.093331 -2.507477,1.773757 -7.342683,3.410019 -10.076709,3.410019 -1.932715,0 -5.506755,-0.945059 -7.680837,-2.03099 -2.575979,-1.286675 -5.736299,-4.379841 -7.059092,-6.909104 -2.859667,-5.467869 -2.725549,-11.242785 0.385721,-16.60845 0.560909,-0.967337 1.019835,-1.811314 1.019835,-1.875513 0,-0.06414 -0.647778,-0.211189 -1.439507,-0.326646 -0.791728,-0.115456 -1.957948,-0.471103 -2.5916,-0.790338 C 58.31401,48.231037 56.71651,45.922057 56.71651,44.658818 v -0.84983 h 11.005812 c 6.637464,0 11.713938,0.130907 12.789904,0.329818 5.817732,1.075462 11.507602,6.590957 12.863848,12.469601 0.352177,1.526521 0.412184,5.081536 0.08568,5.079028 -0.125009,-9.74e-4 -2.341096,-2.118556 -4.924628,-4.705754 -5.338255,-5.345837 -6.262903,-6.069192 -8.529158,-6.672395 -2.227313,-0.592825 -4.08954,-0.54694 -6.368429,0.156932 -2.377995,0.734499 -4.869585,2.83844 -6.159674,5.201357 -0.758771,1.389749 -0.906807,2.03926 -1.014035,4.449046 -0.122372,2.75013 -0.0975,2.878507 0.980552,5.059785 2.745584,5.555309 8.927263,7.631932 14.425244,4.845905 1.79647,-0.910342 3.969582,-3.00638 4.536887,-4.37597 0.211109,-0.509646 0.471207,-0.926618 0.578015,-0.926618 0.106752,0 2.302852,2.111959 4.880107,4.693234 l 4.685897,4.693246 4.803048,-4.769014 4.80304,-4.769002 0.73073,1.210482 c 1.20197,1.991108 2.8963,3.524444 4.97565,4.502903 1.68182,0.791392 2.31041,0.92293 4.39428,0.919471 2.10282,-0.0034 2.70252,-0.133932 4.43389,-0.96452 3.31806,-1.591752 5.3634,-4.272035 6.019,-7.887482 0.74417,-4.103845 -0.98026,-8.289208 -4.33165,-10.513302 -3.04554,-2.021117 -6.16381,-2.445373 -9.77516,-1.329936 -2.00174,0.618276 -2.20505,0.780522 -7.40487,5.909546 -2.94064,2.900614 -5.438162,5.273827 -5.550032,5.273827 -0.4467,0 -0.16571,-3.696495 0.429522,-5.650343 0.95593,-3.13786 2.43597,-5.548596 4.71584,-7.681298 2.25569,-2.110081 5.32147,-3.745255 7.95121,-4.240881 1.42987,-0.26949 23.97567,-0.468034 23.97567,-0.211143 0,0.05303 -0.20533,0.787989 -0.45631,1.633101 -0.52872,1.780388 -2.2613,3.555885 -3.75238,3.845316 -0.51877,0.100681 -1.35234,0.262114 -1.85239,0.358694 -1.10469,0.213377 -1.13284,0.566733 -0.15925,1.999503 1.97376,2.904645 2.92252,7.691596 2.29305,11.569557 -0.74227,4.572841 -4.04686,9.289304 -8.2136,11.722811 -2.16917,1.266859 -6.25434,2.41722 -8.55429,2.408835 -2.66563,-0.0092 -7.0875,-1.46853 -9.4076,-3.103658 l -0.85805,-0.604726 -4.46813,4.432484 c -2.457472,2.43786 -4.526658,4.432472 -4.598188,4.432472 -0.0716,0 -2.140946,-2.010866 -4.598667,-4.468598 z M 74.478472,64.912151 c -1.529007,-0.925542 -2.6057,-2.705815 -2.60771,-4.311759 -0.0036,-2.86719 2.58518,-5.413703 5.299929,-5.213406 1.146569,0.08464 1.219657,0.14865 1.312526,1.15028 0.131011,1.412886 1.070733,2.369766 2.439601,2.484145 1.00714,0.08419 1.106915,0.177892 1.197253,1.124864 0.38064,3.989958 -4.201926,6.847985 -7.641599,4.765876 z M 113.47429,64.7531 c -1.84694,-1.345766 -2.30908,-2.201598 -2.30908,-4.276136 0,-2.015001 0.4309,-2.860914 2.10956,-4.141289 0.90554,-0.690688 1.42392,-0.849074 2.79356,-0.853575 l 1.68171,-0.0057 0.0447,1.186486 c 0.0545,1.447821 0.95954,2.298636 2.44522,2.298636 1.01636,0 1.02711,0.01443 1.02711,1.373485 0,3.035037 -1.82231,5.018757 -4.80272,5.228113 -1.53137,0.107553 -1.84831,0.02176 -2.98999,-0.810188 z"
       id="path24" />
  </g>
</svg>
